<svg width="32" height="32" viewBox="0 0 32 32" fill="none" xmlns="http://www.w3.org/2000/svg">
<path fill-rule="evenodd" clip-rule="evenodd" d="M27.0769 0C28.3826 0 29.6348 0.51868 30.5581 1.44194C31.4813 2.36519 32 3.6174 32 4.92308V8.61539C32 9.92107 31.4813 11.1733 30.5581 12.0965C29.6348 13.0198 28.3826 13.5385 27.0769 13.5385L4.92308 13.5385C3.6174 13.5385 2.36519 13.0198 1.44194 12.0965C0.518681 11.1733 0 9.92107 0 8.61539V4.92308C0 3.6174 0.518681 2.36519 1.44194 1.44194C2.36519 0.51868 3.6174 0 4.92308 0L27.0769 0ZM27.0769 18.4615C28.3826 18.4615 29.6348 18.9802 30.5581 19.9035C31.4813 20.8267 32 22.0789 32 23.3846V27.0769C32 28.3826 31.4813 29.6348 30.5581 30.5581C29.6348 31.4813 28.3826 32 27.0769 32H4.92308C3.6174 32 2.36519 31.4813 1.44194 30.5581C0.518681 29.6348 0 28.3826 0 27.0769V23.3846C0 22.0789 0.518681 20.8267 1.44194 19.9035C2.36519 18.9802 3.6174 18.4615 4.92308 18.4615H27.0769Z" fill="#3F3471"/>
</svg>
