<svg width="32" height="32" viewBox="0 0 32 32" fill="none" xmlns="http://www.w3.org/2000/svg">
<path fill-rule="evenodd" clip-rule="evenodd" d="M18.809 1.228C18.2248 1 17.4827 1 16.0001 1C14.5175 1 13.777 1 13.1912 1.228C12.4135 1.53132 11.7945 2.11565 11.4702 2.8525C11.3218 3.187 11.265 3.5785 11.2413 4.147C11.2307 4.55891 11.1098 4.96145 10.8899 5.31658C10.67 5.67171 10.3583 5.96767 9.98446 6.1765C9.60354 6.37766 9.17534 6.48422 8.73954 6.48632C8.30373 6.48841 7.87442 6.38598 7.49137 6.1885C6.9577 5.9215 6.57087 5.7745 6.18878 5.7265C5.35283 5.62223 4.50736 5.8357 3.83621 6.3205C3.33412 6.6835 2.96308 7.2895 2.22257 8.5C1.48048 9.7105 1.11102 10.315 1.02734 10.9075C0.916816 11.6965 1.14418 12.4945 1.6589 13.126C1.89258 13.414 2.22257 13.6555 2.73256 13.9585C3.48569 14.404 3.96884 15.163 3.96884 16C3.96884 16.837 3.48569 17.596 2.73414 18.04C2.22257 18.3445 1.89258 18.586 1.65732 18.874C1.40325 19.1859 1.21676 19.5426 1.10863 19.9234C1.0005 20.3041 0.972869 20.7015 1.02734 21.0925C1.11102 21.6835 1.48048 22.2895 2.22257 23.5C2.96465 24.7105 3.33412 25.315 3.83621 25.6795C4.50567 26.164 5.35196 26.377 6.18878 26.2735C6.57087 26.2255 6.9577 26.0785 7.49137 25.8115C7.87461 25.6138 8.30422 25.5112 8.74033 25.5133C9.17644 25.5154 9.60493 25.6221 9.98604 25.8235C10.7534 26.2435 11.2081 27.016 11.2413 27.853C11.265 28.423 11.3218 28.813 11.4702 29.1475C11.7923 29.8825 12.4112 30.4675 13.1912 30.772C13.7754 31 14.5175 31 16.0001 31C17.4827 31 18.2248 31 18.809 30.772C19.5866 30.4687 20.2057 29.8844 20.53 29.1475C20.6784 28.813 20.7352 28.423 20.7589 27.853C20.7905 27.016 21.2468 26.242 22.0157 25.8235C22.3966 25.6223 22.8248 25.5158 23.2606 25.5137C23.6964 25.5116 24.1258 25.614 24.5088 25.8115C25.0425 26.0785 25.4293 26.2255 25.8114 26.2735C26.6482 26.3785 27.4945 26.164 28.164 25.6795C28.6661 25.3165 29.0371 24.7105 29.7776 23.5C30.5197 22.2895 30.8892 21.685 30.9728 21.0925C31.0271 20.7014 30.9992 20.304 30.8908 19.9232C30.7824 19.5424 30.5956 19.1858 30.3413 18.874C30.1076 18.586 29.7776 18.3445 29.2676 18.0415C28.5145 17.596 28.0313 16.837 28.0313 16C28.0313 15.163 28.5145 14.404 29.266 13.96C29.7776 13.6555 30.1076 13.414 30.3429 13.126C30.5969 12.8141 30.7834 12.4574 30.8915 12.0766C30.9997 11.6959 31.0273 11.2985 30.9728 10.9075C30.8892 10.3165 30.5197 9.7105 29.7776 8.5C29.0355 7.2895 28.6661 6.685 28.164 6.3205C27.4928 5.8357 26.6473 5.62223 25.8114 5.7265C25.4293 5.7745 25.0425 5.9215 24.5088 6.1885C24.1256 6.38624 23.696 6.48883 23.2598 6.48673C22.8237 6.48463 22.3952 6.37792 22.0141 6.1765C21.6406 5.96749 21.3292 5.67144 21.1096 5.31633C20.89 4.96121 20.7693 4.55876 20.7589 4.147C20.7352 3.577 20.6784 3.187 20.53 2.8525C20.3695 2.4876 20.1349 2.15632 19.8396 1.87759C19.5443 1.59885 19.1941 1.37812 18.809 1.228ZM16.0001 20.5C18.6369 20.5 20.7731 18.4855 20.7731 16C20.7731 13.5145 18.6353 11.5 16.0001 11.5C13.3633 11.5 11.2271 13.5145 11.2271 16C11.2271 18.4855 13.3649 20.5 16.0001 20.5Z" fill="#3F3471"/>
</svg>
